<svg enable-background="new 0 0 512 512" viewBox="0 0 512 512" xmlns="http://www.w3.org/2000/svg"><g><g><g><path d="m487.869 131.022c0-9.321-7.558-16.87-16.87-16.87h-429.999c-9.312 0-16.87 7.549-16.87 16.87v210.605l21.561 20v.004h420.616v-.004l21.562-20z" fill="#2b3890"/><path d="m470.999 114.152h-17.124c9.312 0 16.87 7.549 16.87 16.87v226.488l17.124-15.883v-210.605c0-9.322-7.558-16.87-16.87-16.87z" fill="#242e7a"/></g><path d="m487.869 341.627v58.793c0 9.321-7.558 16.879-16.87 16.879h-429.999c-9.312 0-16.87-7.558-16.87-16.879v-58.793z" fill="#dae7ef"/><path d="m470.746 341.627v58.793c0 9.321-7.558 16.879-16.87 16.879h17.124c9.312 0 16.87-7.558 16.87-16.879v-58.793z" fill="#c1d5e4"/></g><g><path d="m50.257 341.631v-198.426c0-1.618 1.312-2.93 2.93-2.93h405.627c1.618 0 2.93 1.312 2.93 2.93v198.426z" fill="#b1e4f9"/><path d="m443.463 140.275v201.355h18.28v-198.425c0-1.618-1.312-2.93-2.93-2.93z" fill="#90d8f9"/></g><path d="m348.182 504.5h-184.364c-2.158 0-3.66-2.146-2.92-4.173l4.213-11.544c1.955-5.357 8.001-9.031 14.863-9.031h152.053c6.862 0 12.908 3.673 14.863 9.031l4.213 11.544c.739 2.027-.762 4.173-2.921 4.173z" fill="#dae7ef"/><path d="m298.16 417.299h-84.321c7.757 24.512.698 46.574-21.178 62.453h126.676c-21.875-15.879-28.934-37.941-21.177-62.453z" fill="#c1d5e4"/><path d="m213.839 417.299c1.945 6.148 2.958 12.141 3.04 17.922h78.242c.082-5.781 1.094-11.774 3.04-17.922z" fill="#98b9d3"/><g><path d="m284.465 42.208h-190.653v-21.766c0-7.148 5.795-12.942 12.942-12.942h143.217c9.444 0 18.142 5.13 22.711 13.395z" fill="#dd5ca2"/><path d="m242.074 42.208h-148.262v-21.766c0-7.148 5.795-12.942 12.942-12.942h100.826c9.444 0 18.142 5.13 22.711 13.395z" fill="#eab14d"/><path d="m406.855 257.391h-301.711c-6.259 0-11.332-5.074-11.332-11.332v-203.851h313.043c6.259 0 11.332 5.074 11.332 11.332v192.519c.001 6.259-5.073 11.332-11.332 11.332z" fill="#f9f6f6"/><path d="m406.855 42.208h-18.478c6.259 0 11.332 5.074 11.332 11.332v192.519c0 6.259-5.074 11.332-11.332 11.332h18.478c6.259 0 11.332-5.074 11.332-11.332v-192.519c0-6.259-5.073-11.332-11.332-11.332z" fill="#dae7ef"/><path d="m199.683 42.208h-105.871v-21.766c0-7.148 5.795-12.942 12.942-12.942h58.436c9.444 0 18.142 5.13 22.711 13.395z" fill="#80b4fb"/></g><path d="m335.082 202.57-67.551 89.031c-6.842 9.018-.41 21.972 10.91 21.972h135.101c11.32 0 17.752-12.954 10.91-21.972l-67.551-89.031c-5.479-7.222-16.339-7.222-21.819 0z" fill="#ffe07d"/><path d="m424.452 291.601-67.551-89.031c-5.48-7.223-16.339-7.223-21.82 0l-3.342 4.404 64.208 84.626c6.843 9.018.411 21.972-10.91 21.972h28.503c11.322.001 17.755-12.953 10.912-21.971z" fill="#ffd064"/><g><path d="m495.37 131.021c0-13.438-10.933-24.369-24.37-24.369h-45.312v-53.112c0-10.384-8.448-18.832-18.832-18.832h-28.675c-4.143 0-7.5 3.357-7.5 7.5s3.357 7.5 7.5 7.5h28.675c2.113 0 3.832 1.719 3.832 3.832v192.52c0 2.113-1.719 3.832-3.832 3.832h-4.636l-39.344-51.854c-8.482-11.179-25.28-11.192-33.769 0l-39.344 51.854h-184.62c-2.113 0-3.832-1.719-3.832-3.832v-196.352h246.882c4.143 0 7.5-3.357 7.5-7.5s-3.357-7.5-7.5-7.5h-59.306l-9.641-17.441c-5.887-10.651-17.104-17.267-29.274-17.267-34.798 0-108.414 0-143.218 0-11.371 0-20.442 9.334-20.442 20.442v86.21h-45.312c-13.438 0-24.37 10.932-24.37 24.369v269.399c0 13.442 10.933 24.379 24.37 24.379h167.093c4.161 18.727-1.973 35.011-17.939 47.453h-10.181c-10.057 0-18.86 5.609-21.908 13.959l-4.212 11.543c-1.187 3.25-.711 6.883 1.271 9.718 1.983 2.836 5.233 4.528 8.693 4.528h184.364c3.46 0 6.71-1.692 8.693-4.528 1.982-2.835 2.458-6.468 1.272-9.717l-4.214-11.544c-3.047-8.35-11.852-13.959-21.908-13.959h-10.18c-15.967-12.442-22.101-28.727-17.94-47.453h39.82c4.143 0 7.5-3.357 7.5-7.5s-3.357-7.5-7.5-7.5c-61.491 0-241.226 0-302.726 0-5.167 0-9.37-4.207-9.37-9.379v-51.293h448.739v51.293c0 5.172-4.203 9.379-9.37 9.379h-97.286c-4.143 0-7.5 3.357-7.5 7.5s3.357 7.5 7.5 7.5h97.289c13.438 0 24.37-10.937 24.37-24.379zm-155.527 360.333 2.062 5.646h-171.81l2.061-5.646c.727-1.988 3.713-4.102 7.817-4.102h152.053c4.105 0 7.092 2.113 7.817 4.102zm-51.244-66.555c-3.112 17.675.989 33.911 11.881 47.453h-88.96c10.889-13.541 14.991-29.779 11.881-47.453zm-183.455-159.907h173.239l-16.826 22.176c-10.585 13.951-.625 34.006 16.884 34.006h12.449c4.143 0 7.5-3.357 7.5-7.5s-3.357-7.5-7.5-7.5h-12.449c-5.131 0-8.034-5.853-4.935-9.939l67.551-89.03c2.481-3.269 7.388-3.269 9.87 0l67.55 89.03c3.101 4.087.196 9.939-4.935 9.939h-92.665c-4.143 0-7.5 3.357-7.5 7.5s3.357 7.5 7.5 7.5h92.665c17.514 0 27.467-20.058 16.884-34.006l-17.579-23.169c7.452-2.51 12.841-9.551 12.841-17.838v-98.284h28.555v186.352h-396.487v-186.354h28.556v98.284c0 10.384 8.448 18.833 18.832 18.833zm160.976-240.368 5.629 10.184h-25.251c-9.997-17.994-9.564-17.497-11.028-19.708h14.502c6.712 0 12.9 3.649 16.148 9.524zm-42.391-.001 5.629 10.185h-25.251c-9.997-17.994-9.564-17.497-11.027-19.708h14.502c6.711 0 12.899 3.649 16.147 9.523zm-58.538-9.523c6.712 0 12.899 3.649 16.147 9.524l5.629 10.184h-85.655v-14.266c0-3.001 2.441-5.442 5.442-5.442zm-133.561 116.021c0-5.166 4.203-9.369 9.37-9.369h45.312v11.123h-36.056c-4.143 0-7.5 3.357-7.5 7.5v193.852h-11.126zm437.613 203.106v-193.852c0-4.143-3.357-7.5-7.5-7.5h-36.055v-11.123h45.312c5.167 0 9.37 4.203 9.37 9.369v203.105h-11.127z"/><path d="m247.278 371.963c-4.143 0-7.5 3.357-7.5 7.5s3.357 7.5 7.5 7.5h17.443c4.143 0 7.5-3.357 7.5-7.5s-3.357-7.5-7.5-7.5z"/><path d="m196.778 177.396h.065c4.112 0 7.463-3.315 7.499-7.436.021-2.518.063-7.473.108-13.604h1.665c4.143 0 7.5-3.357 7.5-7.5s-3.357-7.5-7.5-7.5h-1.565c.102-17.237.156-35.876-.056-38.428-.456-5.467-3.725-9.92-8.329-11.347-4.557-1.41-9.426.373-13.016 4.776-4.025 4.938-22.729 38.658-28.366 48.875-1.281 2.323-1.24 5.151.109 7.437 1.349 2.284 3.805 3.687 6.458 3.687h28.098c-.034 4.773-.07 9.354-.106 13.476-.035 4.141 3.294 7.527 7.436 7.564zm-22.685-36.041c5.841-10.455 11.556-20.501 15.55-27.278.005 7.042-.035 16.975-.096 27.278z"/><path d="m349.083 141.355c.102-17.237.156-35.876-.056-38.428-.456-5.467-3.725-9.92-8.329-11.347-4.557-1.41-9.427.373-13.016 4.776-4.025 4.938-22.729 38.658-28.366 48.875-1.281 2.323-1.24 5.151.109 7.437 1.349 2.284 3.805 3.687 6.458 3.687h28.098c-.034 4.773-.07 9.354-.106 13.476-.035 4.142 3.294 7.528 7.436 7.564h.065c4.112 0 7.463-3.315 7.499-7.436.021-2.518.063-7.473.108-13.604h1.665c4.143 0 7.5-3.357 7.5-7.5s-3.357-7.5-7.5-7.5zm-15.002 0h-15.454c5.841-10.455 11.556-20.501 15.55-27.278.004 7.042-.036 16.975-.096 27.278z"/><path d="m227.885 119.845v32.967c0 15.503 12.612 28.115 28.114 28.115s28.114-12.612 28.114-28.115v-32.967c0-15.502-12.612-28.114-28.114-28.114s-28.114 12.612-28.114 28.114zm41.229 0v32.967c0 7.231-5.883 13.115-13.114 13.115s-13.114-5.884-13.114-13.115v-32.967c0-7.231 5.883-13.114 13.114-13.114s13.114 5.882 13.114 13.114z"/><path d="m345.992 271.386c4.143 0 7.5-3.357 7.5-7.5v-37.69c0-4.143-3.357-7.5-7.5-7.5s-7.5 3.357-7.5 7.5v37.69c0 4.142 3.357 7.5 7.5 7.5z"/><path d="m345.992 295.334c4.143 0 7.5-3.357 7.5-7.5v-3.078c0-4.143-3.357-7.5-7.5-7.5s-7.5 3.357-7.5 7.5v3.078c0 4.143 3.357 7.5 7.5 7.5z"/></g></g></svg>