<svg width="343" height="392" viewBox="0 0 343 392" fill="none" xmlns="http://www.w3.org/2000/svg">
<rect x="68" y="17" width="184" height="300" rx="12" fill="#12CAD6"/>
<rect x="68" y="45" width="184" height="246" fill="#E4F8FF"/>
<rect x="133" y="29" width="33" height="5" rx="2.5" fill="#A1E8EC"/>
<circle cx="175.5" cy="31.5" r="2.5" fill="#E6E6E6"/>
<circle r="73.6588" transform="matrix(-1 0 0 1 160.133 167.046)" fill="white"/>
<path fill-rule="evenodd" clip-rule="evenodd" d="M194.507 139.219C195.713 139.219 196.69 140.196 196.69 141.401V192.69C196.69 193.895 195.713 194.872 194.507 194.872H187.195V205.051C187.195 206.935 184.969 207.934 183.562 206.682L171.652 196.082C171.279 195.75 171.049 195.323 170.961 194.872H121.394C120.189 194.872 119.212 193.895 119.212 192.69V141.401C119.212 140.196 120.189 139.219 121.394 139.219H194.507Z" fill="#0FAABC"/>
<circle r="3.27372" transform="matrix(-1 0 0 1 181.412 167.591)" fill="white"/>
<circle r="3.27372" transform="matrix(-1 0 0 1 158.496 167.591)" fill="white"/>
<circle r="3.27372" transform="matrix(-1 0 0 1 135.58 167.591)" fill="white"/>
<circle cx="166.681" cy="240.159" r="26.7354" fill="#0EABBE"/>
<mask id="path-11-outside-1_1_2" maskUnits="userSpaceOnUse" x="150.412" y="227.059" width="35" height="31" fill="black">
<rect fill="white" x="150.412" y="227.059" width="35" height="31"/>
<path fill-rule="evenodd" clip-rule="evenodd" d="M154.204 230.059C153.767 230.059 153.412 230.413 153.412 230.851V249.467C153.412 249.904 153.767 250.259 154.204 250.259H156.858V253.953C156.858 254.637 157.666 255 158.177 254.545L162.5 250.698C162.635 250.578 162.719 250.422 162.75 250.259H180.741C181.179 250.259 181.534 249.904 181.534 249.467V230.851C181.534 230.413 181.179 230.059 180.741 230.059H154.204Z"/>
</mask>
<path fill-rule="evenodd" clip-rule="evenodd" d="M154.204 230.059C153.767 230.059 153.412 230.413 153.412 230.851V249.467C153.412 249.904 153.767 250.259 154.204 250.259H156.858V253.953C156.858 254.637 157.666 255 158.177 254.545L162.5 250.698C162.635 250.578 162.719 250.422 162.75 250.259H180.741C181.179 250.259 181.534 249.904 181.534 249.467V230.851C181.534 230.413 181.179 230.059 180.741 230.059H154.204Z" fill="#0FAABC"/>
<path d="M156.858 250.259H159.858V247.259H156.858V250.259ZM158.177 254.545L160.171 256.786L160.171 256.786L158.177 254.545ZM162.5 250.698L160.505 248.457L160.505 248.457L162.5 250.698ZM162.75 250.259V247.259H160.279L159.806 249.685L162.75 250.259ZM156.412 230.851C156.412 232.07 155.423 233.059 154.204 233.059V227.059C152.11 227.059 150.412 228.757 150.412 230.851H156.412ZM156.412 249.467V230.851H150.412V249.467H156.412ZM154.204 247.259C155.423 247.259 156.412 248.247 156.412 249.467H150.412C150.412 251.561 152.11 253.259 154.204 253.259V247.259ZM156.858 247.259H154.204V253.259H156.858V247.259ZM159.858 253.953V250.259H153.858V253.953H159.858ZM156.182 252.304C157.606 251.037 159.858 252.048 159.858 253.953H153.858C153.858 257.227 157.726 258.962 160.171 256.786L156.182 252.304ZM160.505 248.457L156.182 252.304L160.171 256.786L164.494 252.939L160.505 248.457ZM159.806 249.685C159.895 249.227 160.132 248.789 160.505 248.457L164.494 252.939C165.138 252.366 165.542 251.618 165.695 250.833L159.806 249.685ZM180.741 247.259H162.75V253.259H180.741V247.259ZM178.534 249.467C178.534 248.247 179.522 247.259 180.741 247.259V253.259C182.836 253.259 184.534 251.561 184.534 249.467H178.534ZM178.534 230.851V249.467H184.534V230.851H178.534ZM180.741 233.059C179.522 233.059 178.534 232.07 178.534 230.851H184.534C184.534 228.757 182.836 227.059 180.741 227.059V233.059ZM154.204 233.059H180.741V227.059H154.204V233.059Z" fill="white" mask="url(#path-11-outside-1_1_2)"/>
<circle cx="158.957" cy="240.357" r="1.18824" fill="white"/>
<circle cx="167.275" cy="240.357" r="1.18824" fill="white"/>
<circle cx="175.592" cy="240.357" r="1.18824" fill="white"/>
<circle r="36.0109" transform="matrix(-1 0 0 1 67.9234 213.423)" fill="#0EABBE"/>
<mask id="path-17-outside-2_1_2" maskUnits="userSpaceOnUse" x="44.7955" y="196.819" width="44" height="40" fill="black">
<rect fill="white" x="44.7955" y="196.819" width="44" height="40"/>
<path fill-rule="evenodd" clip-rule="evenodd" d="M84.7285 199.819C85.3177 199.819 85.7955 200.297 85.7955 200.886V225.961C85.7955 226.55 85.3177 227.027 84.7285 227.027H81.1537V232.004C81.1537 232.925 80.0653 233.413 79.3774 232.801L73.5548 227.619C73.3725 227.457 73.2599 227.248 73.217 227.027H48.9843C48.395 227.027 47.9173 226.55 47.9173 225.961V200.886C47.9173 200.297 48.395 199.819 48.9843 199.819H84.7285Z"/>
</mask>
<path fill-rule="evenodd" clip-rule="evenodd" d="M84.7285 199.819C85.3177 199.819 85.7955 200.297 85.7955 200.886V225.961C85.7955 226.55 85.3177 227.027 84.7285 227.027H81.1537V232.004C81.1537 232.925 80.0653 233.413 79.3774 232.801L73.5548 227.619C73.3725 227.457 73.2599 227.248 73.217 227.027H48.9843C48.395 227.027 47.9173 226.55 47.9173 225.961V200.886C47.9173 200.297 48.395 199.819 48.9843 199.819H84.7285Z" fill="#0FAABC"/>
<path d="M81.1537 227.027H78.1537V224.027H81.1537V227.027ZM79.3774 232.801L77.3829 235.042L77.3829 235.042L79.3774 232.801ZM73.5548 227.619L71.5604 229.86L71.5604 229.86L73.5548 227.619ZM73.217 227.027V224.027H75.6887L76.1616 226.454L73.217 227.027ZM82.7955 200.886C82.7955 201.954 83.6609 202.819 84.7285 202.819V196.819C86.9746 196.819 88.7955 198.64 88.7955 200.886H82.7955ZM82.7955 225.961V200.886H88.7955V225.961H82.7955ZM84.7285 224.027C83.6609 224.027 82.7955 224.893 82.7955 225.961H88.7955C88.7955 228.207 86.9746 230.027 84.7285 230.027V224.027ZM81.1537 224.027H84.7285V230.027H81.1537V224.027ZM78.1537 232.004V227.027H84.1537V232.004H78.1537ZM81.3718 230.56C80.1255 229.451 78.1537 230.335 78.1537 232.004H84.1537C84.1537 235.514 80.0052 237.376 77.3829 235.042L81.3718 230.56ZM75.5493 225.378L81.3718 230.56L77.3829 235.042L71.5604 229.86L75.5493 225.378ZM76.1616 226.454C76.0834 226.052 75.8752 225.668 75.5493 225.378L71.5604 229.86C70.8699 229.246 70.4364 228.443 70.2724 227.601L76.1616 226.454ZM48.9843 224.027H73.217V230.027H48.9843V224.027ZM50.9173 225.961C50.9173 224.893 50.0518 224.027 48.9843 224.027V230.027C46.7381 230.027 44.9173 228.207 44.9173 225.961H50.9173ZM50.9173 200.886V225.961H44.9173V200.886H50.9173ZM48.9843 202.819C50.0518 202.819 50.9173 201.954 50.9173 200.886H44.9173C44.9173 198.64 46.7381 196.819 48.9843 196.819V202.819ZM84.7285 202.819H48.9843V196.819H84.7285V202.819Z" fill="white" mask="url(#path-17-outside-2_1_2)"/>
<circle r="1.60049" transform="matrix(-1 0 0 1 78.3265 213.69)" fill="white"/>
<circle r="1.60049" transform="matrix(-1 0 0 1 67.1231 213.69)" fill="white"/>
<circle r="1.60049" transform="matrix(-1 0 0 1 55.9197 213.69)" fill="white"/>
<circle cx="40.0967" cy="89.5675" r="19.0967" fill="#0EABBE"/>
<mask id="path-23-outside-3_1_2" maskUnits="userSpaceOnUse" x="27.6191" y="79.3532" width="27" height="24" fill="black">
<rect fill="white" x="27.6191" y="79.3532" width="27" height="24"/>
<path fill-rule="evenodd" clip-rule="evenodd" d="M31.1849 82.3532C30.8724 82.3532 30.6191 82.6065 30.6191 82.919V96.216C30.6191 96.5285 30.8724 96.7818 31.1849 96.7818H33.0806V99.4208C33.0806 99.9092 33.6578 100.168 34.0226 99.8435L37.1103 97.0955C37.207 97.0095 37.2667 96.8986 37.2895 96.7818H50.1402C50.4527 96.7818 50.706 96.5285 50.706 96.216V82.919C50.706 82.6065 50.4527 82.3532 50.1402 82.3532H31.1849Z"/>
</mask>
<path fill-rule="evenodd" clip-rule="evenodd" d="M31.1849 82.3532C30.8724 82.3532 30.6191 82.6065 30.6191 82.919V96.216C30.6191 96.5285 30.8724 96.7818 31.1849 96.7818H33.0806V99.4208C33.0806 99.9092 33.6578 100.168 34.0226 99.8435L37.1103 97.0955C37.207 97.0095 37.2667 96.8986 37.2895 96.7818H50.1402C50.4527 96.7818 50.706 96.5285 50.706 96.216V82.919C50.706 82.6065 50.4527 82.3532 50.1402 82.3532H31.1849Z" fill="#0FAABC"/>
<path d="M33.0806 96.7818H36.0806V93.7818H33.0806V96.7818ZM33.0806 99.4208L36.0806 99.4208V99.4208H33.0806ZM34.0226 99.8435L32.0282 97.6025L32.0282 97.6025L34.0226 99.8435ZM37.1103 97.0955L39.1048 99.3366L39.1048 99.3366L37.1103 97.0955ZM37.2895 96.7818V93.7818H34.8177L34.3449 96.2079L37.2895 96.7818ZM33.6191 82.919C33.6191 84.2634 32.5293 85.3532 31.1849 85.3532V79.3532C29.2156 79.3532 27.6191 80.9497 27.6191 82.919H33.6191ZM33.6191 96.216V82.919H27.6191V96.216H33.6191ZM31.1849 93.7818C32.5293 93.7818 33.6191 94.8716 33.6191 96.216H27.6191C27.6191 98.1854 29.2156 99.7818 31.1849 99.7818V93.7818ZM33.0806 93.7818H31.1849V99.7818H33.0806V93.7818ZM36.0806 99.4208V96.7818H30.0806V99.4208H36.0806ZM32.0282 97.6025C33.5976 96.2057 36.0806 97.3198 36.0806 99.4208L30.0806 99.4208C30.0806 102.499 33.7179 104.131 36.0171 102.085L32.0282 97.6025ZM35.1159 94.8545L32.0282 97.6025L36.0171 102.085L39.1048 99.3366L35.1159 94.8545ZM34.3449 96.2079C34.4432 95.7034 34.7043 95.2208 35.1159 94.8545L39.1048 99.3366C39.7097 98.7982 40.0902 98.0938 40.2341 97.3557L34.3449 96.2079ZM50.1402 93.7818H37.2895V99.7818H50.1402V93.7818ZM47.706 96.216C47.706 94.8716 48.7958 93.7818 50.1402 93.7818V99.7818C52.1095 99.7818 53.706 98.1854 53.706 96.216H47.706ZM47.706 82.919V96.216H53.706V82.919H47.706ZM50.1402 85.3532C48.7958 85.3532 47.706 84.2634 47.706 82.919H53.706C53.706 80.9497 52.1095 79.3532 50.1402 79.3532V85.3532ZM31.1849 85.3532H50.1402V79.3532H31.1849V85.3532Z" fill="white" mask="url(#path-23-outside-3_1_2)"/>
<circle cx="34.5799" cy="89.709" r="0.848743" fill="white"/>
<circle cx="40.5211" cy="89.709" r="0.848743" fill="white"/>
<circle cx="46.4623" cy="89.709" r="0.848743" fill="white"/>
<circle r="28.9179" transform="matrix(-1 0 0 1 124.122 76.4726)" fill="#0EABBE"/>
<mask id="path-29-outside-4_1_2" maskUnits="userSpaceOnUse" x="104.474" y="62.5481" width="37" height="33" fill="black">
<rect fill="white" x="104.474" y="62.5481" width="37" height="33"/>
<path fill-rule="evenodd" clip-rule="evenodd" d="M137.617 65.5481C138.09 65.5481 138.474 65.9317 138.474 66.4049V86.5403C138.474 87.0135 138.09 87.3972 137.617 87.3972H134.747V91.3934C134.747 92.1329 133.873 92.5251 133.32 92.0334L128.645 87.8722C128.498 87.7419 128.408 87.574 128.373 87.3972H108.914C108.44 87.3972 108.057 87.0135 108.057 86.5403V66.4049C108.057 65.9317 108.44 65.5481 108.914 65.5481H137.617Z"/>
</mask>
<path fill-rule="evenodd" clip-rule="evenodd" d="M137.617 65.5481C138.09 65.5481 138.474 65.9317 138.474 66.4049V86.5403C138.474 87.0135 138.09 87.3972 137.617 87.3972H134.747V91.3934C134.747 92.1329 133.873 92.5251 133.32 92.0334L128.645 87.8722C128.498 87.7419 128.408 87.574 128.373 87.3972H108.914C108.44 87.3972 108.057 87.0135 108.057 86.5403V66.4049C108.057 65.9317 108.44 65.5481 108.914 65.5481H137.617Z" fill="#0FAABC"/>
<path d="M134.747 87.3972H131.747V84.3972H134.747V87.3972ZM133.32 92.0334L131.326 94.2744H131.326L133.32 92.0334ZM128.645 87.8722L130.639 85.6312L130.639 85.6312L128.645 87.8722ZM128.373 87.3972V84.3972H130.845L131.318 86.8232L128.373 87.3972ZM135.474 66.4049C135.474 67.5886 136.434 68.5481 137.617 68.5481V62.5481C139.747 62.5481 141.474 64.2749 141.474 66.4049H135.474ZM135.474 86.5403V66.4049H141.474V86.5403H135.474ZM137.617 84.3972C136.434 84.3972 135.474 85.3567 135.474 86.5403H141.474C141.474 88.6704 139.747 90.3972 137.617 90.3972V84.3972ZM134.747 84.3972H137.617V90.3972H134.747V84.3972ZM131.747 91.3934V87.3972H137.747V91.3934H131.747ZM135.315 89.7924C133.933 88.5626 131.747 89.5435 131.747 91.3934H137.747C137.747 94.7223 133.812 96.4876 131.326 94.2744L135.315 89.7924ZM130.639 85.6312L135.315 89.7924L131.326 94.2744L126.65 90.1132L130.639 85.6312ZM131.318 86.8232C131.231 86.3788 131.001 85.9532 130.639 85.6312L126.65 90.1132C125.995 89.5306 125.584 88.7692 125.429 87.9711L131.318 86.8232ZM108.914 84.3972H128.373V90.3972H108.914V84.3972ZM111.057 86.5403C111.057 85.3567 110.097 84.3972 108.914 84.3972V90.3972C106.784 90.3972 105.057 88.6704 105.057 86.5403H111.057ZM111.057 66.4049V86.5403H105.057V66.4049H111.057ZM108.914 68.5481C110.097 68.5481 111.057 67.5886 111.057 66.4049H105.057C105.057 64.2749 106.784 62.5481 108.914 62.5481V68.5481ZM137.617 68.5481H108.914V62.5481H137.617V68.5481Z" fill="white" mask="url(#path-29-outside-4_1_2)"/>
<circle r="1.28524" transform="matrix(-1 0 0 1 132.476 76.6869)" fill="white"/>
<circle r="1.28524" transform="matrix(-1 0 0 1 123.48 76.6869)" fill="white"/>
<circle r="1.28524" transform="matrix(-1 0 0 1 114.483 76.6869)" fill="white"/>
<circle cx="213.604" cy="85.2025" r="20.188" fill="#0EABBE"/>
<mask id="path-35-outside-5_1_2" maskUnits="userSpaceOnUse" x="200.585" y="74.576" width="28" height="25" fill="black">
<rect fill="white" x="200.585" y="74.576" width="28" height="25"/>
<path fill-rule="evenodd" clip-rule="evenodd" d="M204.183 77.576C203.853 77.576 203.585 77.8438 203.585 78.1741V92.2309C203.585 92.5613 203.853 92.8291 204.183 92.8291H206.187V95.6189C206.187 96.1352 206.797 96.409 207.183 96.0657L210.447 93.1607C210.549 93.0698 210.612 92.9525 210.636 92.8291H224.221C224.552 92.8291 224.82 92.5613 224.82 92.2309V78.1741C224.82 77.8438 224.552 77.576 224.221 77.576H204.183Z"/>
</mask>
<path fill-rule="evenodd" clip-rule="evenodd" d="M204.183 77.576C203.853 77.576 203.585 77.8438 203.585 78.1741V92.2309C203.585 92.5613 203.853 92.8291 204.183 92.8291H206.187V95.6189C206.187 96.1352 206.797 96.409 207.183 96.0657L210.447 93.1607C210.549 93.0698 210.612 92.9525 210.636 92.8291H224.221C224.552 92.8291 224.82 92.5613 224.82 92.2309V78.1741C224.82 77.8438 224.552 77.576 224.221 77.576H204.183Z" fill="#0FAABC"/>
<path d="M206.187 92.8291H209.187V89.8291H206.187V92.8291ZM207.183 96.0657L205.188 93.8247H205.188L207.183 96.0657ZM210.447 93.1607L212.441 95.4017L212.441 95.4017L210.447 93.1607ZM210.636 92.8291V89.8291H208.165L207.692 92.2551L210.636 92.8291ZM206.585 78.1741C206.585 79.5006 205.509 80.576 204.183 80.576V74.576C202.196 74.576 200.585 76.1869 200.585 78.1741H206.585ZM206.585 92.2309V78.1741H200.585V92.2309H206.585ZM204.183 89.8291C205.509 89.8291 206.585 90.9044 206.585 92.2309H200.585C200.585 94.2181 202.196 95.8291 204.183 95.8291V89.8291ZM206.187 89.8291H204.183V95.8291H206.187V89.8291ZM209.187 95.6189V92.8291H203.187V95.6189H209.187ZM205.188 93.8247C206.737 92.4465 209.187 93.5458 209.187 95.6189H203.187C203.187 98.7246 206.857 100.371 209.177 98.3067L205.188 93.8247ZM208.453 90.9197L205.188 93.8247L209.177 98.3067L212.441 95.4017L208.453 90.9197ZM207.692 92.2551C207.789 91.7573 208.047 91.281 208.453 90.9197L212.441 95.4017C213.052 94.8585 213.436 94.1478 213.581 93.4031L207.692 92.2551ZM224.221 89.8291H210.636V95.8291H224.221V89.8291ZM221.82 92.2309C221.82 90.9044 222.895 89.8291 224.221 89.8291V95.8291C226.209 95.8291 227.82 94.2182 227.82 92.2309H221.82ZM221.82 78.1741V92.2309H227.82V78.1741H221.82ZM224.221 80.576C222.895 80.576 221.82 79.5006 221.82 78.1741H227.82C227.82 76.1869 226.209 74.576 224.221 74.576V80.576ZM204.183 80.576H224.221V74.576H204.183V80.576Z" fill="white" mask="url(#path-35-outside-5_1_2)"/>
<circle cx="207.772" cy="85.3521" r="0.897242" fill="white"/>
<circle cx="214.053" cy="85.3521" r="0.897242" fill="white"/>
<circle cx="220.333" cy="85.3521" r="0.897242" fill="white"/>
<circle r="33.8285" transform="matrix(-1 0 0 1 286.172 113.029)" fill="#0EABBE"/>
<mask id="path-41-outside-6_1_2" maskUnits="userSpaceOnUse" x="263.96" y="97.2496" width="42" height="38" fill="black">
<rect fill="white" x="263.96" y="97.2496" width="42" height="38"/>
<path fill-rule="evenodd" clip-rule="evenodd" d="M301.958 100.25C302.512 100.25 302.96 100.698 302.96 101.252V124.807C302.96 125.36 302.512 125.809 301.958 125.809H298.6V130.484C298.6 131.349 297.578 131.808 296.931 131.232L291.462 126.365C291.29 126.212 291.185 126.016 291.144 125.809H268.38C267.827 125.809 267.378 125.36 267.378 124.807V101.252C267.378 100.698 267.827 100.25 268.38 100.25H301.958Z"/>
</mask>
<path fill-rule="evenodd" clip-rule="evenodd" d="M301.958 100.25C302.512 100.25 302.96 100.698 302.96 101.252V124.807C302.96 125.36 302.512 125.809 301.958 125.809H298.6V130.484C298.6 131.349 297.578 131.808 296.931 131.232L291.462 126.365C291.29 126.212 291.185 126.016 291.144 125.809H268.38C267.827 125.809 267.378 125.36 267.378 124.807V101.252C267.378 100.698 267.827 100.25 268.38 100.25H301.958Z" fill="#0FAABC"/>
<path d="M298.6 125.809H295.6V122.809H298.6V125.809ZM296.931 131.232L294.937 133.473H294.937L296.931 131.232ZM291.462 126.365L293.456 124.124L293.456 124.124L291.462 126.365ZM291.144 125.809V122.809H293.616L294.089 125.235L291.144 125.809ZM299.96 101.252C299.96 102.355 300.855 103.25 301.958 103.25V97.2496C304.169 97.2496 305.96 99.0415 305.96 101.252H299.96ZM299.96 124.807V101.252H305.96V124.807H299.96ZM301.958 122.809C300.855 122.809 299.96 123.703 299.96 124.807H305.96C305.96 127.017 304.169 128.809 301.958 128.809V122.809ZM298.6 122.809H301.958V128.809H298.6V122.809ZM295.6 130.484V125.809H301.6V130.484H295.6ZM298.926 128.991C297.638 127.845 295.6 128.759 295.6 130.484H301.6C301.6 133.938 297.517 135.77 294.937 133.473L298.926 128.991ZM293.456 124.124L298.926 128.991L294.937 133.473L289.467 128.606L293.456 124.124ZM294.089 125.235C294.008 124.82 293.793 124.423 293.456 124.124L289.467 128.606C288.788 128.001 288.361 127.211 288.2 126.383L294.089 125.235ZM268.38 122.809H291.144V128.809H268.38V122.809ZM270.378 124.807C270.378 123.703 269.484 122.809 268.38 122.809V128.809C266.17 128.809 264.378 127.017 264.378 124.807H270.378ZM270.378 101.252V124.807H264.378V101.252H270.378ZM268.38 103.25C269.484 103.25 270.378 102.355 270.378 101.252H264.378C264.378 99.0415 266.17 97.2496 268.38 97.2496V103.25ZM301.958 103.25H268.38V97.2496H301.958V103.25Z" fill="white" mask="url(#path-41-outside-6_1_2)"/>
<circle r="1.50349" transform="matrix(-1 0 0 1 295.944 113.28)" fill="white"/>
<circle r="1.50349" transform="matrix(-1 0 0 1 285.42 113.28)" fill="white"/>
<circle r="1.50349" transform="matrix(-1 0 0 1 274.895 113.28)" fill="white"/>
<path d="M216.286 229.881C230.94 232.612 239.272 231.254 254.224 226.541C250.886 279.189 234.927 309.096 216.286 362.166H204.305L216.286 229.881Z" fill="#4B176A"/>
<path d="M230.928 322.748C236.601 306.078 240.706 293.155 248.233 267.963V308.05L275.522 350.808V364.839L230.928 322.748Z" fill="#330A49"/>
<path d="M226.602 169.083C236.181 170.657 240.745 169.173 246.57 159.73C251.818 161.058 253.658 162.937 254.224 169.083C251.592 186.568 252.741 201.311 254.224 226.541C239.581 231.551 230.293 233.087 215.911 230.215C214.875 229.041 214.775 227.714 215.911 226.541C217.726 195.353 219.292 179.9 226.602 169.083Z" fill="#FF5152"/>
<path d="M232.962 177.499C233.943 174.385 237.087 172.518 240.296 173.058L240.762 173.137C244.035 173.689 246.416 176.583 246.256 179.911C245.618 193.128 244.039 202.061 240.527 214.134C239.595 217.337 236.4 219.299 233.121 218.746L232.711 218.677C229.483 218.133 227.114 215.309 227.211 212.025C227.587 199.209 228.961 190.198 232.962 177.499Z" fill="#FFD0A6"/>
<path d="M196.151 179.271L194.54 180.455L201.968 190.646L203.579 189.462L196.151 179.271Z" fill="#2D266A"/>
<path d="M235.789 211.745C237.198 213.14 237.266 215.389 235.984 216.903C234.687 218.434 232.432 218.714 230.828 217.512C218.221 208.071 212.506 201.132 201.578 190.078C200.997 189.49 200.942 188.557 201.455 187.909C201.99 187.233 202.956 187.094 203.662 187.585C216.503 196.518 224.648 200.722 235.789 211.745Z" fill="#FFD0A6"/>
<path d="M204.412 362.009C204.778 361.68 205.251 361.498 205.743 361.498H214.955C216.057 361.498 216.951 362.395 216.951 363.502V370.852C216.951 371.959 216.057 372.856 214.955 372.856H197.554C195.721 372.856 194.856 370.584 196.223 369.358L204.412 362.009Z" fill="#5A4F4F"/>
<path d="M275.299 364.675C275.013 364.319 274.857 363.875 274.857 363.416V352.813C274.857 351.706 275.751 350.808 276.853 350.808H284.175C285.278 350.808 286.172 351.706 286.172 352.813V372.524C286.172 374.415 283.803 375.254 282.621 373.783L275.299 364.675Z" fill="#5A4F4F"/>
<path d="M228.599 159.73C238.34 159.73 246.237 150.457 246.237 139.019C246.237 127.58 238.34 118.307 228.599 118.307C218.858 118.307 210.961 127.58 210.961 139.019C210.961 150.457 218.858 159.73 228.599 159.73Z" fill="#FED0A6"/>
<path d="M226.269 148.677L237.077 145.032C240.173 151.424 241.833 154.697 246.57 160.064C241.009 169.439 236.23 170.625 226.602 169.083C227.438 160.19 227.418 155.932 226.269 148.677Z" fill="#FED0A6"/>
<path d="M220.591 118.265C215.373 120.246 205.737 127.576 208.935 141.046C211.932 138.625 219.325 132.132 224.921 132.132C226.253 135.433 229.45 140.848 231.581 136.094C231.803 133.783 233.513 130.019 238.575 133.452C238.131 134.553 238.375 138.009 242.905 143.027C243.868 143.966 244.714 143.878 246.57 143.027C248.57 133.848 248.788 128.949 244.237 121.567C243.904 119.476 241.24 115.888 233.247 118.265C231.581 116.614 230.449 114.831 220.591 118.265Z" fill="#7E4D2C"/>
</svg>
